<svg width="182" height="34" viewBox="0 0 182 34" fill="none" xmlns="http://www.w3.org/2000/svg">
<path d="M12.1002 28.8L5.2002 7.29999H11.2002L15.4002 22.1L19.6002 7.29999H25.6002L18.7002 28.8H12.1002Z" fill="#24C708"/>
<path d="M32.7002 23.6H41.0002V28.8H27.2002V7.29999H40.8002V12.4H32.7002V15.4H40.1002V20.5H32.7002V23.6Z" fill="#24C708"/>
<path d="M54.8 28.8L51 21.8H49V28.7H43.5V7.29999H52.1C54.3 7.29999 56.1 7.99999 57.6 9.39999C59.1 10.8 59.8 12.6 59.8 14.7C59.8 17.3 58.4 19.6 56.2 20.8L60.6 28.8H54.8ZM49.1 12.3V17.1H52.1C53.4 17.1 54.4 16.1 54.4 14.7C54.4 13.3 53.5 12.3 52.1 12.3H49.1Z" fill="#24C708"/>
<path d="M61.1006 23.9L65.8006 21.2C66.6006 23.1 68.0006 24 70.0006 24C71.7006 24 72.5006 23.5 72.5006 22.6C72.5006 22 72.0006 21.5 71.1006 21.1C70.7006 20.9 69.8006 20.7 68.4006 20.3C64.5006 19.2 62.0006 17.3 62.0006 13.6C62.0006 11.6 62.7006 9.99999 64.1006 8.8C65.5006 7.6 67.3006 7 69.4006 7C73.0006 7 75.9006 8.7 77.4006 11.9L72.8006 14.6C72.1006 13 71.0006 12.2 69.5006 12.2C68.2006 12.2 67.5006 12.8 67.5006 13.6C67.5006 14.6 68.3006 15.1 71.2006 15.9C72.2006 16.2 73.1006 16.5 73.7006 16.8C74.3006 17.1 75.0006 17.4 75.8006 18C77.3006 19 78.0006 20.6 78.0006 22.7C78.0006 24.8 77.3006 26.5 75.8006 27.6C74.3006 28.8 72.3006 29.4 69.9006 29.4C65.3006 29.2 62.3006 27.2 61.1006 23.9Z" fill="#24C708"/>
<path d="M94.3002 7.29999V12.6H89.0002V28.8H83.5002V12.6H78.2002V7.29999H94.3002Z" fill="#24C708"/>
<path d="M114 28.8H107.9L101.7 19.2V28.8H96.2002V7.29999H101.7V16.3L107.5 7.29999H113.6L106.8 17.8L114 28.8Z" fill="#24C708"/>
<path d="M124.3 29.2C121.1 29.2 118.5 28.1 116.3 26C114.1 23.8 113.1 21.2 113.1 18C113.1 14.8 114.2 12.2 116.3 10C118.5 7.80001 121.1 6.70001 124.3 6.70001C127.5 6.70001 130.1 7.80001 132.3 10C134.5 12.2 135.6 14.8 135.6 18C135.6 21.2 134.5 23.8 132.3 26C130.1 28.2 127.5 29.2 124.3 29.2ZM124.3 23.9C126 23.9 127.3 23.3 128.4 22.3C129.5 21.2 130.1 19.8 130.1 18.1C130.1 16.4 129.5 15 128.4 13.9C127.3 12.8 125.9 12.2 124.3 12.2C122.6 12.2 121.3 12.8 120.2 13.9C119.1 15 118.5 16.4 118.5 18.1C118.5 19.8 119.1 21.2 120.2 22.3C121.3 23.3 122.7 23.9 124.3 23.9Z" fill="#24C708"/>
<path d="M142.3 28.8L135.4 7.29999H141.4L145.6 22.1L149.8 7.29999H155.8L148.9 28.8H142.3Z" fill="#24C708"/>
<path d="M166.8 29.2C163.6 29.2 161 28.1 158.8 26C156.6 23.8 155.6 21.2 155.6 18C155.6 14.8 156.7 12.2 158.8 10C161 7.80001 163.6 6.70001 166.8 6.70001C170 6.70001 172.6 7.80001 174.8 10C177 12.2 178.1 14.8 178.1 18C178.1 21.2 177 23.8 174.8 26C172.5 28.2 169.9 29.2 166.8 29.2ZM166.8 23.9C168.5 23.9 169.8 23.3 170.9 22.3C172 21.2 172.6 19.8 172.6 18.1C172.6 16.4 172 15 170.9 13.9C169.8 12.8 168.4 12.2 166.8 12.2C165.1 12.2 163.8 12.8 162.7 13.9C161.6 15 161 16.4 161 18.1C161 19.8 161.6 21.2 162.7 22.3C163.7 23.3 165.1 23.9 166.8 23.9Z" fill="#24C708"/>
</svg>
