<svg xmlns="http://www.w3.org/2000/svg" width="57" height="63" viewBox="0 0 57 63">
    <path fill="#19B5FE" fill-rule="evenodd" d="M53.071 8.708H33.985c.005-.067.01-.135.01-.204V5.511c0-1.238-.927-2.245-2.065-2.245h-6.943V2.109C24.987.946 24.117 0 23.05 0h-12.01C9.97 0 9.1.946 9.1 2.11v1.156H2.158C1.02 3.266.094 4.273.094 5.51v2.993c0 1.215.892 2.206 2.001 2.242V55.52C.986 55.556.094 56.546.094 57.76v2.994C.094 61.993 1.02 63 2.158 63H31.93c1.138 0 2.064-1.007 2.064-2.245V57.76c0-.069-.004-.136-.01-.204h15.084c1.621 0 2.94-1.434 2.94-3.197v-3.266c0-.638.477-1.157 1.063-1.157 1.621 0 2.94-1.434 2.94-3.197V11.906c0-1.763-1.319-3.198-2.94-3.198zm-49.1 46.808V10.75h26.145v44.767H3.972zM10.978 2.11c0-.037.028-.068.062-.068h12.01c.034 0 .062.03.062.068v1.157H10.977V2.109zM1.97 8.504V5.511c0-.113.084-.204.188-.204H31.93c.104 0 .188.091.188.204v2.993c0 .113-.084.204-.188.204H2.158c-.104 0-.188-.091-.188-.204zm30.148 49.257v2.994c0 .112-.084.204-.188.204H2.158c-.104 0-.188-.092-.188-.204V57.76c0-.112.084-.204.188-.204H31.93c.104 0 .188.092.188.204zM54.135 46.74c0 .637-.477 1.156-1.064 1.156-1.62 0-2.94 1.435-2.94 3.198v3.265c0 .638-.476 1.157-1.063 1.157H31.993V10.75H53.07c.587 0 1.064.52 1.064 1.157V46.74zm-7.068-33.677c-.518 0-.938.456-.938 1.02v3.266c0 .564.42 1.02.938 1.02s.938-.456.938-1.02v-3.266c0-.564-.42-1.02-.938-1.02zm4.003 0c-.518 0-.938.456-.938 1.02v3.266c0 .564.42 1.02.938 1.02s.938-.456.938-1.02v-3.266c0-.564-.42-1.02-.938-1.02zm-8.006 0c-.518 0-.938.456-.938 1.02v3.266c0 .564.42 1.02.938 1.02s.938-.456.938-1.02v-3.266c0-.564-.42-1.02-.938-1.02zm-4.003 0c-.518 0-.939.456-.939 1.02v3.266c0 .564.42 1.02.939 1.02.518 0 .938-.456.938-1.02v-3.266c0-.564-.42-1.02-.938-1.02zm-4.003 0c-.519 0-.939.456-.939 1.02v3.266c0 .564.42 1.02.939 1.02.518 0 .938-.456.938-1.02v-3.266c0-.564-.42-1.02-.938-1.02zm-12.01 0c-.518 0-.938.456-.938 1.02v3.266c0 .564.42 1.02.939 1.02.518 0 .938-.456.938-1.02v-3.266c0-.564-.42-1.02-.938-1.02zm4.004 0c-.519 0-.939.456-.939 1.02v3.266c0 .564.42 1.02.939 1.02.518 0 .938-.456.938-1.02v-3.266c0-.564-.42-1.02-.938-1.02zm-8.007 0c-.518 0-.938.456-.938 1.02v3.266c0 .564.42 1.02.938 1.02.519 0 .939-.456.939-1.02v-3.266c0-.564-.42-1.02-.939-1.02zm-4.003 0c-.518 0-.938.456-.938 1.02v3.266c0 .564.42 1.02.938 1.02.519 0 .939-.456.939-1.02v-3.266c0-.564-.42-1.02-.939-1.02zm-8.006 0c-.518 0-.938.456-.938 1.02v3.266c0 .564.42 1.02.938 1.02.519 0 .939-.456.939-1.02v-3.266c0-.564-.42-1.02-.939-1.02zm4.003 0c-.518 0-.938.456-.938 1.02v3.266c0 .564.42 1.02.938 1.02.519 0 .939-.456.939-1.02v-3.266c0-.564-.42-1.02-.939-1.02zm12.01 34.833c-.519 0-.939.457-.939 1.02v3.266c0 .564.42 1.02.939 1.02.518 0 .938-.456.938-1.02v-3.265c0-.564-.42-1.02-.938-1.02zm4.003 0c-.519 0-.939.457-.939 1.02v3.266c0 .564.42 1.02.939 1.02.518 0 .938-.456.938-1.02v-3.265c0-.564-.42-1.02-.938-1.02zm-8.007 0c-.518 0-.938.457-.938 1.02v3.266c0 .564.42 1.02.938 1.02.519 0 .939-.456.939-1.02v-3.265c0-.564-.42-1.02-.939-1.02zm-4.003 0c-.518 0-.938.457-.938 1.02v3.266c0 .564.42 1.02.938 1.02.519 0 .939-.456.939-1.02v-3.265c0-.564-.42-1.02-.939-1.02zm-8.006 0c-.518 0-.938.457-.938 1.02v3.266c0 .564.42 1.02.938 1.02.519 0 .939-.456.939-1.02v-3.265c0-.564-.42-1.02-.939-1.02zm4.003 0c-.518 0-.938.457-.938 1.02v3.266c0 .564.42 1.02.938 1.02.519 0 .939-.456.939-1.02v-3.265c0-.564-.42-1.02-.939-1.02zm36.028 0c-.518 0-.938.457-.938 1.02v3.266c0 .564.42 1.02.938 1.02s.938-.456.938-1.02v-3.265c0-.564-.42-1.02-.938-1.02zm-4.003 0c-.518 0-.938.457-.938 1.02v3.266c0 .564.42 1.02.938 1.02s.938-.456.938-1.02v-3.265c0-.564-.42-1.02-.938-1.02zm-4.003 0c-.518 0-.939.457-.939 1.02v3.266c0 .564.42 1.02.939 1.02.518 0 .938-.456.938-1.02v-3.265c0-.564-.42-1.02-.938-1.02zm-4.003 0c-.519 0-.939.457-.939 1.02v3.266c0 .564.42 1.02.939 1.02.518 0 .938-.456.938-1.02v-3.265c0-.564-.42-1.02-.938-1.02z"/>
</svg>
