<svg xmlns="http://www.w3.org/2000/svg" width="67" height="39" viewBox="0 0 67 39">
    <g fill="#2ECC71" fill-rule="evenodd">
        <path stroke="#2ECC71" stroke-width=".5" d="M58.987 13.821v.185H8.104v-.185a6.313 6.313 0 0 0-2.348-4.913h55.58a6.316 6.316 0 0 0-2.349 4.913zm-7.833 13.345H39.458a8.057 8.057 0 0 1-5.74-2.382l-2.342-2.345A17.386 17.386 0 0 0 18.99 17.3a7.618 7.618 0 0 0-6.37 3.41 21.5 21.5 0 0 1-.751-5.3h43.014a21.442 21.442 0 0 1-3.728 11.756zm-8.202 7.171c1.878-2.245 2.7-4.683 2.995-5.766h4.163a21.674 21.674 0 0 1-7.158 5.766zm-16.268 1.19c1.236-.19 2.293-.738 3.035-1.593 1.109-1.278 1.433-3.08.912-5.075-.496-1.9-1.71-3.763-3.42-5.25-1.979-1.723-4.363-2.71-6.544-2.71-1.658 0-3.084.591-4.016 1.665-1.034 1.192-1.384 2.839-1.005 4.672a21.538 21.538 0 0 1-2.472-4.778l.502-.804a6.229 6.229 0 0 1 5.313-2.949c4.304 0 8.351 1.679 11.395 4.728l2.342 2.345a9.453 9.453 0 0 0 6.732 2.792h5.022c-.501 1.603-1.938 5.128-5.304 7.227a21.438 21.438 0 0 1-5.8.796c-2.337.001-4.585-.376-6.692-1.067zM20.08 31.83c-1.498-1.304-2.557-2.918-2.983-4.545-.4-1.532-.181-2.88.615-3.798.847-.977 2.076-1.183 2.956-1.183 1.847 0 3.896.863 5.624 2.365 1.498 1.303 2.558 2.918 2.983 4.546.4 1.53.181 2.88-.615 3.797-.847.977-2.075 1.182-2.956 1.182-1.847 0-3.897-.861-5.624-2.364zM2.496 7.503h62.099V2.405H2.496v5.098zM65.296 1H1.795a.702.702 0 0 0-.701.703v6.502c0 .389.314.703.701.703a4.916 4.916 0 0 1 4.906 4.913v.887c0 .389.314.703.702.703h3.062C10.658 27.9 20.86 38 33.375 38c12.516 0 22.717-10.1 22.91-22.588h3.404a.703.703 0 0 0 .702-.703v-.887c0-2.709 2.2-4.913 4.905-4.913a.701.701 0 0 0 .702-.703V1.703A.702.702 0 0 0 65.296 1z"/>
        <path d="M23.088 29.18c-.11.127-.3.153-.44.153-.385 0-.844-.198-1.227-.53-.65-.567-.857-1.312-.606-1.601.11-.127.3-.154.439-.154.387 0 .845.199 1.228.531.334.291.578.658.669 1.006.031.12.088.42-.063.595m1.643-4.03c-.847-.738-1.883-1.16-2.844-1.16-.805 0-1.508.3-1.98.842-1.075 1.24-.64 3.321.988 4.74.848.736 1.884 1.158 2.843 1.158.806 0 1.51-.299 1.98-.842.55-.632.724-1.533.479-2.474-.217-.825-.737-1.63-1.466-2.265M46.766 24.656a.698.698 0 0 0 .981-.098c.77-.944 1.395-2.274 1.858-3.95a.697.697 0 1 0-1.344-.372c-.411 1.488-.948 2.645-1.594 3.437a.7.7 0 0 0 .099.983M49.43 18.142a.698.698 0 0 0 .78-.605c.083-.656.109-1.075.11-1.092a.699.699 0 0 0-1.393-.082c0 .003-.024.393-.1.997a.699.699 0 0 0 .603.782"/>
    </g>
</svg>
