<?xml version="1.0" encoding="utf-8"?>
<svg version="1.1" id="Layer_1" xmlns="http://www.w3.org/2000/svg" xmlns:xlink="http://www.w3.org/1999/xlink" x="0px" y="0px" viewBox="0 0 300 300" style="enable-background:new 0 0 300 300;" xml:space="preserve">
<circle fill="#a6a6a6" cx="150.5" cy="150" r="112.5"/>
<path fill="#F3F3F3" d="M150,0C67.2,0,0,67.2,0,150c0,82.8,67.2,150,150,150s150-67.2,150-150C300,67.2,232.8,0,150,0z M213.3,166.5 H165V217c0,8.5-6.9,15.3-15.3,15.3c-8.5,0-15.3-6.9-15.3-15.3v-50.5h-47c-8.5,0-15.3-6.9-15.3-15.3c0-8.5,6.9-15.3,15.3-15.3l47,0 V91.1c0-8.5,6.9-15.3,15.3-15.3c8.5,0,15.3,6.9,15.3,15.3l0,44.8l48.3,0c8.5,0,15.3,6.9,15.3,15.3 C228.6,159.6,221.7,166.5,213.3,166.5z"/>
</svg>
