<svg xmlns="http://www.w3.org/2000/svg" width="36" height="43" viewBox="0 0 36 43">
    <path fill="none" fill-rule="evenodd" stroke="#19B5FE" d="M4.653.5h25.95a4 4 0 0 1 4 4v34a4 4 0 0 1-4 4H4.653a4 4 0 0 1-4-4v-34a4 4 0 0 1 4-4zm1.991 8v-3a2 2 0 0 1 2-2h18.967a2 2 0 0 1 2 2v3a2 2 0 0 1-2 2H8.644a2 2 0 0 1-2-2zm5.492 11H7.644a1 1 0 0 1-1-1V13m5.492 15.5H7.644a1 1 0 0 1-1-1V22m14.978-2.5h-4.99a1 1 0 0 1-1-1V13m5.491 15.5h-4.492a1 1 0 0 1-1-1V22m14.479-2.5h-4.492a1 1 0 0 1-1-1V13m5.492 15.5h-4.492a1 1 0 0 1-1-1V22M12.136 38.5H7.644a1 1 0 0 1-1-1V32m14.48 6.5H16.63a1 1 0 0 1-1-1V32m14.479 6.5h-4.492a1 1 0 0 1-1-1V32"/>
</svg>
