<svg xmlns="http://www.w3.org/2000/svg" width="14" height="16" viewBox="0 0 14 16">
    <path fill="#F5A623" fill-rule="evenodd" d="M9.072 6.404c.216-.228.387-.486.513-.774.126-.288.19-.594.19-.918 0-.54-.136-1.044-.406-1.512A3.012 3.012 0 0 0 8.28 2.093a2.88 2.88 0 0 0-1.494-.405 2.88 2.88 0 0 0-1.494.405c-.456.27-.819.639-1.089 1.107-.27.468-.405.972-.405 1.512h1.476c0-.408.15-.762.45-1.062.3-.3.654-.45 1.062-.45.408 0 .762.15 1.062.45.3.3.45.648.45 1.044s-.15.756-.45 1.08l-.918.936c-.276.3-.486.624-.63.972a2.73 2.73 0 0 0-.252 1.134v.396h1.476c0-.516.084-.948.252-1.296.108-.228.318-.51.63-.846l.666-.666zM7.524 12.2v-1.512H6.048V12.2h1.476zm4.5-11.988c.408 0 .762.144 1.062.432.3.288.45.636.45 1.044V12.2c0 .408-.15.762-.45 1.062-.3.3-.654.45-1.062.45H9.036l-2.25 2.25-2.25-2.25H1.548c-.42 0-.777-.15-1.07-.45A1.467 1.467 0 0 1 .035 12.2V1.688c0-.408.147-.756.441-1.044A1.474 1.474 0 0 1 1.548.212h10.476z"/>
</svg>
