<svg xmlns="http://www.w3.org/2000/svg" width="65" height="41" viewBox="0 0 65 41">
    <path fill="#2ECC71" fill-rule="evenodd" d="M62.953 19.045l-6.254 9.273a.067.067 0 0 1-.08.026l-6.334-2.31a1.018 1.018 0 0 0-.695 1.913l3.119 1.137-.394 1.084c-.105.29-.317.52-.596.651-.279.13-.591.144-.88.039L14.169 17.49a1.144 1.144 0 0 1-.65-.596 1.147 1.147 0 0 1-.039-.882l1.877-5.164 7.662 2.792a7.62 7.62 0 0 1 2.485 1.49l6.213 5.563a9.645 9.645 0 0 0 3.144 1.885l5.229 1.906a1.018 1.018 0 0 0 .695-1.913l-5.23-1.906a7.624 7.624 0 0 1-2.484-1.49l-6.213-5.563a9.645 9.645 0 0 0-3.144-1.884L14.08 8.217a.068.068 0 0 1-.04-.087l1.853-5.1c.105-.29.317-.521.596-.652.279-.13.591-.144.88-.038L62.92 18.943c.01.004.03.012.041.043a.063.063 0 0 1-.008.06zm-29.256 9.712h-4.471v-3.611l4.471 1.63v1.98zm.917 2.112l-.64 4.496c-.081.565-.572.99-1.141.99H30.09c-.57 0-1.06-.425-1.14-.99l-.642-4.496a.063.063 0 0 1 .016-.053c.02-.024.043-.024.051-.024h6.172c.009 0 .031 0 .051.024.02.023.018.045.016.053zM6.462 31.878h19.937l.329 2.307H6.462v-2.307zM4.43 37.373c0 .636-.517 1.154-1.152 1.154H2.126V27.535h1.152c.635 0 1.152.518 1.152 1.154v8.684zm60.464-19.015a2.089 2.089 0 0 0-1.28-1.327L18.065.427a3.16 3.16 0 0 0-2.436.107c-.77.36-1.355.999-1.646 1.8l-1.854 5.1a2.106 2.106 0 0 0 1.256 2.695l.063.024-1.877 5.164c-.29.8-.253 1.666.107 2.438.36.772.997 1.358 1.796 1.649l13.72 5.001v4.72c-.148.1-.285.219-.404.357-.097.112-.18.233-.251.36H6.462V28.69A3.19 3.19 0 0 0 3.278 25.5H1.11c-.561 0-1.016.456-1.016 1.018v13.027c0 .562.455 1.017 1.016 1.017h2.168a3.19 3.19 0 0 0 3.184-3.189V36.22h20.61a3.204 3.204 0 0 0 3.018 2.171h2.743a3.201 3.201 0 0 0 3.152-2.738l.641-4.496a2.104 2.104 0 0 0-.492-1.675 2.103 2.103 0 0 0-.405-.357v-1.608l14.414 5.253a3.17 3.17 0 0 0 2.435-.106 3.166 3.166 0 0 0 1.647-1.8l.393-1.083 1.306.476a2.098 2.098 0 0 0 2.459-.8l6.254-9.272c.364-.54.458-1.207.257-1.827z"/>
</svg>
