<svg xmlns="http://www.w3.org/2000/svg" width="38" height="45" viewBox="0 0 38 45">
    <g fill="none" fill-rule="nonzero">
        <path fill="#2ECC71" d="M20.292 0h2.617v4.5c4.207 0 7.775.026 11.982 0 .71.036 3.034 0 2.89 0 .144 0 .123 1.88.152 2.763-.02 9.014-.012 18.021-.008 27.03-.021 1.51-.143 2.827.008 5.082 0 0-1.37-.036-2.072 0-4.354.016-8.594-.01-12.952 0V45h-2.73C13.773 43.562 7.355 41.883.941 40.497V4.159C7.393 2.772 13.845 1.407 20.292 0z"/>
        <path fill="#FFF" d="M22.909 5.625c4.728 0 9.286-.044 14.015-.044v32.71H22.91v-3.416h2.995V31.5H22.91v-2.25h2.995v-3.375H22.91v-2.25h2.995V20.25H22.91V18h2.995v-3.375H22.91v-2.25h2.995V9H22.91V5.625z"/>
        <path fill="#2ECC71" d="M34.89 9v3.375H28.9V9h5.99zM34.89 14.625V18H28.9v-3.375h5.99zM34.89 20.25v3.375H28.9V20.25h5.99zM34.89 25.875v3.375H28.9v-3.375h5.99zM34.89 31.5v3.375H28.9V31.5h5.99z"/>
        <path fill="#FFF" d="M12.941 13.709c.955-.082 1.914-.153 2.872-.209a1157.07 1157.07 0 0 1-3.408 8.343c1.161 2.851 2.348 5.681 3.514 8.532a204.8 204.8 0 0 1-3.05-.234c-.718-2.123-1.592-4.174-2.107-6.394-.575 2.067-1.394 4.017-2.053 6.043a84.24 84.24 0 0 1-2.775-.107c1.085-2.56 2.133-5.142 3.252-7.687-.95-2.622-1.994-5.192-2.974-7.799.93-.066 1.859-.132 2.788-.193.63 1.99 1.318 3.955 1.838 5.997.557-2.164 1.39-4.2 2.103-6.292z"/>
    </g>
</svg>
